<svg width="46" height="46" viewBox="0 0 46 46" fill="none" xmlns="http://www.w3.org/2000/svg">
<path id="Vector" d="M29.8723 22.9988C29.8723 24.8327 29.1438 26.5915 27.847 27.8883C26.5502 29.1851 24.7914 29.9136 22.9574 29.9136C21.1235 29.9136 19.3647 29.1851 18.0679 27.8883C16.7711 26.5915 16.0425 24.8327 16.0425 22.9988C16.0425 22.6046 16.084 22.2197 16.1555 21.8463H13.7376V31.0592C13.7376 31.7 14.2562 32.2186 14.897 32.2186H31.0202C31.3273 32.218 31.6216 32.0956 31.8385 31.8782C32.0555 31.6609 32.1773 31.3663 32.1773 31.0592V21.8463H29.7594C29.8308 22.2197 29.8723 22.6046 29.8723 22.9988ZM22.9574 27.6087C23.563 27.6085 24.1625 27.4891 24.7219 27.2572C25.2813 27.0254 25.7896 26.6856 26.2176 26.2573C26.6457 25.829 26.9852 25.3206 27.2168 24.7611C27.4484 24.2016 27.5675 23.602 27.5674 22.9964C27.5672 22.3909 27.4478 21.7913 27.2159 21.232C26.9841 20.6726 26.6443 20.1643 26.216 19.7363C25.7877 19.3082 25.2793 18.9687 24.7198 18.7371C24.1603 18.5055 23.5607 18.3864 22.9551 18.3865C21.7322 18.3868 20.5595 18.8729 19.6949 19.7379C18.8304 20.6028 18.3449 21.7758 18.3452 22.9988C18.3455 24.2217 18.8316 25.3944 19.6966 26.2589C20.5615 27.1235 21.7345 27.609 22.9574 27.6087ZM28.4893 18.1583H31.253C31.4366 18.1583 31.6127 18.0855 31.7428 17.9559C31.8728 17.8263 31.9462 17.6504 31.9468 17.4668V14.7032C31.9468 14.5192 31.8737 14.3427 31.7436 14.2126C31.6135 14.0825 31.437 14.0094 31.253 14.0094H28.4893C28.3053 14.0094 28.1289 14.0825 27.9988 14.2126C27.8686 14.3427 27.7956 14.5192 27.7956 14.7032V17.4668C27.7979 17.8472 28.109 18.1583 28.4893 18.1583ZM22.9574 0.871094C17.0888 0.871094 11.4606 3.20239 7.31081 7.35213C3.16107 11.5019 0.829773 17.1301 0.829773 22.9988C0.829773 28.8674 3.16107 34.4956 7.31081 38.6454C11.4606 42.7951 17.0888 45.1264 22.9574 45.1264C25.8633 45.1264 28.7407 44.5541 31.4253 43.442C34.11 42.33 36.5493 40.7001 38.6041 38.6454C40.6588 36.5906 42.2887 34.1513 43.4007 31.4666C44.5127 28.782 45.0851 25.9046 45.0851 22.9988C45.0851 20.0929 44.5127 17.2155 43.4007 14.5309C42.2887 11.8462 40.6588 9.40688 38.6041 7.35213C36.5493 5.29739 34.11 3.66748 31.4253 2.55546C28.7407 1.44344 25.8633 0.871094 22.9574 0.871094ZM34.4823 31.9628C34.4823 33.3711 33.3298 34.5236 31.9214 34.5236H13.9934C12.5851 34.5236 11.4326 33.3711 11.4326 31.9628V14.0347C11.4326 12.6264 12.5851 11.4739 13.9934 11.4739H31.9214C33.3298 11.4739 34.4823 12.6264 34.4823 14.0347V31.9628Z" fill="#D1D1D2"/>
</svg>
