<svg width="45" height="46" viewBox="0 0 45 46" fill="none" xmlns="http://www.w3.org/2000/svg">
<path id="Vector" d="M14.589 12.5854C15.0263 10.3128 15.6225 8.27193 16.3332 6.54602C17.1167 4.63789 18.0201 3.17751 18.9572 2.21694C19.8892 1.25897 20.7717 0.871094 21.5709 0.871094C22.3701 0.871094 23.2526 1.25897 24.1846 2.21694C25.1218 3.18011 26.0251 4.63789 26.8087 6.54602C27.5193 8.27193 28.1155 10.3128 28.5528 12.5854H14.589ZM13.9252 5.55681C14.4808 4.15599 15.2037 2.82742 16.078 1.59998C13.2173 2.38535 10.5568 3.77132 8.27381 5.66555C5.99078 7.55979 4.13766 9.91879 2.8379 12.5854H11.9415C12.4153 9.96399 13.0895 7.58209 13.9252 5.55681ZM29.2167 5.55681C28.6608 4.15692 27.9379 2.82924 27.0638 1.60259C29.9243 2.38766 32.5846 3.77323 34.8676 5.66701C37.1506 7.56078 39.0039 9.91928 40.3039 12.5854H31.2003C30.7266 9.96399 30.0523 7.58209 29.2167 5.55681ZM31.5934 15.1886H41.3608C41.97 17.042 42.3241 19.01 42.3865 21.0535C40.4695 19.7587 38.2047 19.0761 35.8914 19.0959C34.4857 19.0959 33.1632 19.3302 31.9501 19.7598C31.8979 18.2316 31.7789 16.7064 31.5934 15.1886ZM29.3781 21.0665C29.3568 19.1009 29.2203 17.1382 28.9694 15.1886H14.1725C13.8956 17.3468 13.7582 19.5206 13.7612 21.6965C13.7612 23.9743 13.9069 26.1584 14.1725 28.2045H24.5386C25.2467 25.2681 26.9596 22.7144 29.3781 21.0665ZM24.182 30.8076H14.589C15.0263 33.0802 15.6225 35.1211 16.3332 36.847C17.1167 38.7551 18.0201 40.2155 18.9572 41.1761C19.8892 42.1341 20.7717 42.5219 21.5709 42.5219C22.3701 42.5219 23.2526 42.1341 24.1846 41.1761C24.8458 40.4993 25.4914 39.5699 26.0902 38.4089C24.812 35.9776 24.1742 33.541 24.1742 31.2814L24.182 30.8076ZM2.8379 30.8076C4.13823 33.474 5.99189 35.8327 8.27536 37.7265C10.5588 39.6203 13.2197 41.0057 16.0807 41.7904C15.2057 40.5648 14.482 39.238 13.9252 37.8388C13.0921 35.8083 12.4153 33.429 11.9415 30.8076H2.8379ZM11.5484 28.2045H1.78098C1.09205 26.104 0.7423 23.9071 0.744887 21.6965C0.744887 19.4239 1.10934 17.2373 1.78098 15.1886H11.5484C11.2933 17.2581 11.1579 19.4422 11.1579 21.6965C11.1579 23.9509 11.2933 26.1349 11.5484 28.2045ZM45.0002 31.2814C45.0002 25.9892 41.1864 21.6991 35.8914 21.6991C30.599 21.6991 26.7774 25.9892 26.7774 31.2814C26.7774 35.2487 29.3338 40.4706 35.2536 44.9117C35.6311 45.198 36.1517 45.198 36.5292 44.9117C42.4542 40.4706 45.0002 35.2487 45.0002 31.2814ZM39.7937 30.8076C39.7937 31.8432 39.3823 32.8364 38.65 33.5687C37.9177 34.301 36.9244 34.7124 35.8888 34.7124C34.8532 34.7124 33.8599 34.301 33.1276 33.5687C32.3953 32.8364 31.9839 31.8432 31.9839 30.8076C31.9839 29.772 32.3953 28.7788 33.1276 28.0466C33.8599 27.3143 34.8532 26.9029 35.8888 26.9029C36.9244 26.9029 37.9177 27.3143 38.65 28.0466C39.3823 28.7788 39.7937 29.772 39.7937 30.8076Z" fill="#D1D1D2"/>
</svg>
