<svg width="46" height="46" viewBox="0 0 46 46" fill="none" xmlns="http://www.w3.org/2000/svg">
<path id="Vector" d="M23.0423 0.871094C10.8227 0.871094 0.914673 10.7791 0.914673 22.9988C0.914673 35.2184 10.8227 45.1264 23.0423 45.1264C35.2619 45.1264 45.17 35.2184 45.17 22.9988C45.17 10.7791 35.2619 0.871094 23.0423 0.871094ZM33.6765 17.5508C33.6913 17.7829 33.6913 18.025 33.6913 18.2621C33.6913 25.5128 28.1692 33.865 18.0784 33.865C14.9667 33.865 12.0822 32.9611 9.65213 31.4053C10.0967 31.4547 10.5214 31.4744 10.9758 31.4744C13.5442 31.4744 15.9052 30.6051 17.787 29.1333C15.3767 29.0839 13.3516 27.5033 12.6601 25.3301C13.5047 25.4535 14.2654 25.4535 15.1347 25.2313C13.8936 24.9791 12.778 24.3051 11.9776 23.3237C11.1772 22.3423 10.7412 21.114 10.7437 19.8475V19.7784C11.4698 20.1883 12.3242 20.4402 13.2182 20.4748C12.4667 19.974 11.8504 19.2954 11.4239 18.4993C10.9974 17.7032 10.7739 16.8141 10.7733 15.911C10.7733 14.8886 11.0401 13.9551 11.5192 13.145C12.8967 14.8408 14.6157 16.2278 16.5644 17.2158C18.5131 18.2037 20.6478 18.7706 22.8299 18.8795C22.0545 15.1504 24.8402 12.1325 28.189 12.1325C29.7695 12.1325 31.192 12.7943 32.1947 13.8612C33.4344 13.6291 34.6198 13.1648 35.6768 12.5424C35.2669 13.8118 34.4075 14.8836 33.2665 15.5603C34.3729 15.4418 35.4398 15.1355 36.4276 14.7058C35.6818 15.8023 34.7483 16.7754 33.6765 17.5508Z" fill="#D1D1D2"/>
</svg>
